<?xml version="1.0" encoding="UTF-8"?>
<svg width="800px" height="219px" viewBox="0 0 800 219" version="1.1" xmlns="http://www.w3.org/2000/svg" xmlns:xlink="http://www.w3.org/1999/xlink">
    <title>F1 Car Silhouette</title>
    <g stroke="none" fill="#e10600">
        <path d="M706.5,98.5 C710.5,96.5 714.5,94.5 718.5,92.5 C722.5,90.5 726.5,88.5 730.5,86.5 C734.5,84.5 738.5,82.5 742.5,80.5 C746.5,78.5 750.5,76.5 754.5,74.5 C750.5,78.5 746.5,82.5 742.5,86.5 C738.5,90.5 734.5,94.5 730.5,98.5 C726.5,102.5 722.5,106.5 718.5,110.5 C714.5,114.5 710.5,118.5 706.5,122.5 C702.5,126.5 698.5,130.5 694.5,134.5 C690.5,138.5 686.5,142.5 682.5,146.5 C682.5,138.5 682.5,130.5 682.5,122.5 C682.5,114.5 682.5,106.5 682.5,98.5 C690.5,98.5 698.5,98.5 706.5,98.5 Z" id="Wing"></path>
        <path d="M80.5,128.5 C84.5,128.5 88.5,130.5 92.5,132.5 C96.5,134.5 100.5,136.5 104.5,138.5 C108.5,140.5 112.5,142.5 116.5,144.5 C128.5,148.5 140.5,150.5 152.5,152.5 C164.5,154.5 176.5,154.5 188.5,154.5 C200.5,154.5 212.5,152.5 224.5,150.5 C236.5,148.5 248.5,146.5 260.5,144.5 C272.5,142.5 284.5,138.5 296.5,134.5 C308.5,130.5 320.5,126.5 332.5,122.5 C340.5,120.5 348.5,116.5 356.5,114.5 C364.5,112.5 372.5,108.5 380.5,106.5 C396.5,102.5 412.5,98.5 428.5,94.5 C444.5,90.5 460.5,88.5 476.5,86.5 C492.5,84.5 508.5,84.5 524.5,84.5 C532.5,84.5 540.5,86.5 548.5,88.5 C556.5,90.5 564.5,92.5 572.5,94.5 C576.5,96.5 580.5,98.5 584.5,100.5 C588.5,102.5 592.5,104.5 596.5,106.5 C600.5,108.5 604.5,110.5 608.5,112.5 C612.5,114.5 616.5,116.5 620.5,118.5 C624.5,120.5 628.5,122.5 632.5,124.5 C640.5,126.5 648.5,128.5 656.5,130.5 C664.5,132.5 672.5,134.5 680.5,136.5 C680.5,140.5 678.5,144.5 676.5,148.5 C676.5,148.5 676.5,148.5 676.5,146.5 C676.5,144.5 676.5,142.5 676.5,140.5 C676.5,138.5 674.5,136.5 674.5,134.5 C674.5,132.5 672.5,130.5 672.5,128.5 C670.5,126.5 668.5,124.5 666.5,122.5 C664.5,120.5 662.5,118.5 660.5,116.5 C658.5,120.5 656.5,124.5 654.5,128.5 C656.5,130.5 660.5,132.5 664.5,134.5 C666.5,134.5 666.5,136.5 666.5,138.5 C666.5,140.5 666.5,142.5 666.5,144.5 C666.5,146.5 664.5,148.5 664.5,150.5 C664.5,152.5 662.5,154.5 662.5,156.5 C656.5,154.5 650.5,154.5 644.5,152.5 C638.5,150.5 632.5,150.5 626.5,148.5 C620.5,146.5 614.5,146.5 608.5,144.5 C606.5,144.5 604.5,144.5 602.5,142.5 C600.5,140.5 598.5,140.5 596.5,138.5 C590.5,138.5 584.5,138.5 578.5,138.5 C572.5,138.5 566.5,138.5 560.5,138.5 C554.5,138.5 548.5,138.5 542.5,138.5 C536.5,138.5 530.5,138.5 524.5,138.5 C518.5,138.5 512.5,140.5 506.5,140.5 C500.5,140.5 494.5,142.5 488.5,142.5 C476.5,142.5 464.5,144.5 452.5,146.5 C444.5,148.5 436.5,148.5 428.5,150.5 C420.5,152.5 412.5,152.5 404.5,154.5 C404.5,156.5 404.5,158.5 404.5,160.5 C404.5,160.5 404.5,162.5 404.5,162.5 C404.5,162.5 402.5,162.5 402.5,162.5 C402.5,162.5 402.5,162.5 402.5,164.5 C402.5,166.5 402.5,168.5 402.5,170.5 C402.5,170.5 400.5,170.5 400.5,170.5 C400.5,170.5 400.5,170.5 400.5,172.5 C400.5,172.5 400.5,172.5 400.5,172.5 C400.5,172.5 400.5,174.5 400.5,174.5 C398.5,176.5 396.5,176.5 394.5,176.5 C378.5,176.5 362.5,176.5 346.5,176.5 C330.5,176.5 314.5,176.5 298.5,176.5 C282.5,176.5 266.5,176.5 250.5,176.5 C234.5,176.5 218.5,174.5 202.5,172.5 C186.5,170.5 170.5,168.5 154.5,166.5 C138.5,164.5 122.5,162.5 106.5,158.5 C94.5,154.5 84.5,146.5 76.5,136.5 C76.5,132.5 78.5,130.5 80.5,128.5 Z" id="Body"></path>
        <path d="M340.5,146.5 C346.5,146.5 352.5,146.5 358.5,146.5 C364.5,146.5 370.5,146.5 376.5,146.5 C370.5,150.5 364.5,154.5 358.5,158.5 C352.5,154.5 346.5,150.5 340.5,146.5 Z" id="Cockpit"></path>
        <path d="M418.5,152.5 C422.5,148.5 426.5,144.5 430.5,140.5 C434.5,144.5 438.5,148.5 442.5,152.5 C442.5,156.5 442.5,160.5 442.5,164.5 C438.5,164.5 434.5,164.5 430.5,164.5 C426.5,164.5 422.5,164.5 418.5,164.5 C418.5,160.5 418.5,156.5 418.5,152.5 Z" id="Driver"></path>
        <path d="M120.5,154.5 C128.5,158.5 136.5,158.5 144.5,158.5 C144.5,162.5 144.5,166.5 144.5,170.5 C136.5,170.5 128.5,170.5 120.5,170.5 C120.5,166.5 118.5,160.5 120.5,154.5 Z" id="Wheel"></path>
        <path d="M196.5,170.5 C204.5,170.5 212.5,170.5 220.5,170.5 C220.5,162.5 220.5,154.5 212.5,154.5 C204.5,154.5 196.5,162.5 196.5,170.5 Z" id="Wheel"></path>
        <path d="M520.5,138.5 C528.5,138.5 536.5,138.5 544.5,138.5 C544.5,146.5 544.5,154.5 536.5,154.5 C528.5,154.5 520.5,146.5 520.5,138.5 Z" id="Wheel"></path>
        <path d="M580.5,138.5 C588.5,138.5 596.5,138.5 604.5,138.5 C604.5,146.5 604.5,154.5 596.5,154.5 C588.5,154.5 580.5,146.5 580.5,138.5 Z" id="Wheel"></path>
    </g>
</svg> 